<svg xmlns="http://www.w3.org/2000/svg" width="48" height="48" viewBox="0 0 48 48"><g fill="#fff" transform="translate(8 -1013.362)"><circle cx="16" cy="1037.362" r="24" fill="#1d67b1"/><path fill="#154082" style="line-height:normal;text-indent:0;text-align:start;text-decoration-line:none;text-decoration-style:solid;text-decoration-color:#000;text-transform:none;block-progression:tb;isolation:auto;mix-blend-mode:normal" d="M 21.341797 47.841797 A 23.999992 23.999992 0 0 0 21.603516 47.880859 A 23.999992 23.999992 0 0 0 24 48 A 23.999992 23.999992 0 0 0 25.697266 47.939453 A 23.999992 23.999992 0 0 0 28.080078 47.650391 A 23.999992 23.999992 0 0 0 30.419922 47.125 A 23.999992 23.999992 0 0 0 32.697266 46.369141 A 23.999992 23.999992 0 0 0 34.886719 45.388672 A 23.999992 23.999992 0 0 0 36.966797 44.195312 A 23.999992 23.999992 0 0 0 38.917969 42.800781 A 23.999992 23.999992 0 0 0 40.720703 41.216797 A 23.999992 23.999992 0 0 0 42.355469 39.460938 A 23.999992 23.999992 0 0 0 43.808594 37.550781 A 23.999992 23.999992 0 0 0 45.0625 35.505859 A 23.999992 23.999992 0 0 0 46.105469 33.345703 A 23.999992 23.999992 0 0 0 46.705078 31.705078 L 26.5 11.5 L 26.492188 11.492188 A 0.50005 0.50005 0 0 0 26 11 L 22 11 A 0.50005 0.50005 0 0 0 21.5 11.5 L 21.5 15.5 A 0.50005 0.50005 0 0 0 21.845703 15.974609 A 0.50005 0.50005 0 0 0 21.894531 15.988281 A 0.50005 0.50005 0 0 0 21.994141 16 A 0.50005 0.50005 0 0 0 22 16 L 23.5 17.5 L 23.5 18 L 16.5 18 A 0.50005 0.50005 0 0 0 16 18.5 L 16 21 L 14.5 21 A 0.50005 0.50005 0 0 0 14 21.5 L 14 25.5 A 0.50005 0.50005 0 0 0 14.001953 25.542969 A 0.50005 0.50005 0 0 0 14.5 26 L 16 27.5 L 16 28 L 11.5 28 A 0.50005 0.50005 0 0 0 11 28.5 L 11 31 L 9.5 31 A 0.50005 0.50005 0 0 0 9 31.5 L 9 35.5 A 0.50005 0.50005 0 0 0 9.0019531 35.542969 A 0.50005 0.50005 0 0 0 9.5 36 L 21.341797 47.841797 z " color="#000" font-family="sans-serif" font-weight="400" transform="translate(-8 1013.362)" white-space="normal"/><path style="line-height:normal;text-indent:0;text-align:start;text-decoration-line:none;text-decoration-style:solid;text-decoration-color:#000;text-transform:none;block-progression:tb;isolation:auto;mix-blend-mode:normal" d="m 14,1024.3622 a 0.50005,0.50005 0 0 0 -0.5,0.5 l 0,4 a 0.50005,0.50005 0 0 0 0.345703,0.4746 0.50005,0.50005 0 0 0 0.04883,0.014 0.50005,0.50005 0 0 0 0.09961,0.012 0.50005,0.50005 0 0 0 0.0059,0 l 1.5,0 0,2 -7,0 a 0.50005,0.50005 0 0 0 -0.5,0.5 l 0,2.5 -1.5,0 a 0.50005,0.50005 0 0 0 -0.5,0.5 l 0,4 a 0.50005,0.50005 0 0 0 0.00195,0.043 0.50005,0.50005 0 0 0 0.49805,0.457 l 1.5,0 0,2 -4.5,0 a 0.50005,0.50005 0 0 0 -0.5,0.5 l 0,2.5 -1.5,0 a 0.50005,0.50005 0 0 0 -0.5,0.5 l 0,4 a 0.50005,0.50005 0 0 0 0.00195,0.043 0.50005,0.50005 0 0 0 0.49805,0.457 l 4,0 a 0.50005,0.50005 0 0 0 0.4980469,-0.457 A 0.50005,0.50005 0 0 0 6,1048.8622 l 0,-4 -0.00781,0.01 A 0.50005,0.50005 0 0 0 5.5,1044.3622 l -1.5,0 0,-2 4.5078125,0 4.4921875,0 0,2 -1.5,0 a 0.50005,0.50005 0 0 0 -0.5,0.5 l 0,4 a 0.50005,0.50005 0 0 0 0.002,0.041 0.50005,0.50005 0 0 0 0.498,0.459 l 4,0 a 0.50005,0.50005 0 0 0 0.498047,-0.459 0.50005,0.50005 0 0 0 0.002,-0.041 l 0,-4 -0.0078,0.01 A 0.50005,0.50005 0 0 0 15.5,1044.3622 l -1.5,0 0,-2.5 a 0.50005,0.50005 0 0 0 -0.5,-0.5 l -4.5,0 0,-2 1.5,0 a 0.50005,0.50005 0 0 0 0.498047,-0.459 0.50005,0.50005 0 0 0 0.002,-0.041 l 0,-4 -0.0078,0.01 A 0.50005,0.50005 0 0 0 10.5,1034.3622 l -1.5,0 0,-2 14,0 0,2 -1.5,0 a 0.50005,0.50005 0 0 0 -0.5,0.5 l 0,4 a 0.50005,0.50005 0 0 0 0.002,0.041 0.50005,0.50005 0 0 0 0.498,0.459 l 1.498047,0 0,2.5 a 0.50005,0.50005 0 0 0 0.5,0.5 l 2.501953,0 0,2 -1.5,0 a 0.50005,0.50005 0 0 0 -0.5,0.5 l 0,4 a 0.50005,0.50005 0 0 0 0.002,0.041 0.50005,0.50005 0 0 0 0.498,0.459 l 4,0 a 0.50005,0.50005 0 0 0 0.498047,-0.459 0.50005,0.50005 0 0 0 0.002,-0.041 l 0,-4 -0.0078,0.01 A 0.50005,0.50005 0 0 0 28.5,1044.3622 l -1.5,0 0,-2.5 a 0.50005,0.50005 0 0 0 -0.5,-0.5 l -2.501953,0 0,-2 1.501953,0 a 0.50005,0.50005 0 0 0 0.498047,-0.459 0.50005,0.50005 0 0 0 0.002,-0.041 l 0,-4 -0.0078,0.01 A 0.50005,0.50005 0 0 0 25.5,1034.3622 l -1.5,0 0,-2.5 a 0.50005,0.50005 0 0 0 -0.5,-0.5 l -7,0 0,-2 1.464844,0 0.03516,0 a 0.50005,0.50005 0 0 0 0.05078,0 0.50005,0.50005 0 0 0 0.04883,-0.01 0.50005,0.50005 0 0 0 0.40039,-0.4902 l 0,-4 -0.0078,0.01 A 0.50005,0.50005 0 0 0 18,1024.3622 l -4,0 z m 0.5,1 3,0 0,3 -1.382812,0 a 0.50005,0.50005 0 0 0 -0.125,-0.014 0.50005,0.50005 0 0 0 -0.113282,0.014 l -1.378906,0 0,-3 z m -7.5,10 1.4238281,0 a 0.50005,0.50005 0 0 0 0.1464844,0 l 1.4296875,0 0,3 -1.3828125,0 a 0.50005,0.50005 0 0 0 -0.125,-0.014 0.50005,0.50005 0 0 0 -0.1132813,0.014 l -1.3789062,0 0,-3 z m 15,0 1.423828,0 a 0.50005,0.50005 0 0 0 0.146484,0 l 1.429688,0 0,3 -1.423828,0 a 0.50005,0.50005 0 0 0 -0.08594,-0.01 0.50005,0.50005 0 0 0 -0.07617,0.01 l -1.414062,0 0,-3 z m -20,10 1.4238281,0 a 0.50005,0.50005 0 0 0 0.1464844,0 l 1.4296875,0 0,3 -3,0 0,-3 z m 10,0 1.423828,0 a 0.50005,0.50005 0 0 0 0.146484,0 l 1.429688,0 0,3 -3,0 0,-3 z m 13,0 1.423828,0 a 0.50005,0.50005 0 0 0 0.146484,0 l 1.429688,0 0,3 -3,0 0,-3 z" color="#000" font-family="sans-serif" font-weight="400" overflow="visible" white-space="normal"/></g></svg>