<svg xmlns="http://www.w3.org/2000/svg" width="26" height="26" viewBox="0 0 26 26"><path d="M 13 0 C 5.8202983 0 -5.994861e-018 5.8202983 0 13 C 0 20.179702 5.8202983 26 13 26 C 20.179702 26 26 20.179702 26 13 L 25.5625 9.625 C 24.039641 3.9416145 18.883874 -2.2816191e-017 13 0 z M 13 6.5 C 15.215063 6.5 17 8.2849 17 10.5 C 17 12.0997 16.32245 13.1316 15.59375 14.0625 C 14.86505 14.9934 14 15.8051 14 17 L 14 17.5 L 13.5 17.5 L 13.5 12.5 L 14 12.5 L 14 11.5 L 12 11.5 L 12 12.5 L 12.5 12.5 L 12.5 17.5 L 12 17.5 L 12 17 C 12 16.4026 11.746487 15.86905 11.4375 15.40625 C 11.128512 14.94345 10.770315 14.5257 10.40625 14.0625 C 9.6781213 13.1361 9 12.1165 9 10.5 C 9 8.2849 10.784936 6.5 13 6.5 z M 12 18.5 L 14 18.5 L 14 18.96875 L 14 19.5 L 13.4375 19.5 L 12.46875 19.5 L 12 19.5 L 12 18.9375 L 12 18.5 z " color="#000" overflow="visible" style="marker:none"/></svg>