<svg xmlns="http://www.w3.org/2000/svg" data-name="Layer 1" viewBox="0 0 512 512"><g data-name="&lt;Group&gt;"><path d="M94.241 169.476A60.967 60.967 0 0 0 155.233 230H356.767a60.972 60.972 0 0 0 60.976-59.41 6.5 6.5 0 0 1-.156-1.418A52.385 52.385 0 0 0 356.48 118.39a6.992 6.992 0 0 1-8.367-7.023c.009-.361.008-.714.008-1.075A91.111 91.111 0 0 0 169.357 85.47a7.275 7.275 0 0 1-5.921 5.291C123.988 95.371 94.24 129 94.24 169h-.015a1.172 1.172 0 0 1 .025.348C94.251 169.492 94.248 169.333 94.241 169.476zM398 326V280.673A6.529 6.529 0 0 0 391.237 274H263V236H249v38H120.763A6.529 6.529 0 0 0 114 280.673V326h14V288H384v38z" data-name="&lt;Path&gt;"/><rect width="151" height="74" x="44" y="353" data-name="&lt;Path&gt;"/><rect width="151" height="12" x="44" y="441" data-name="&lt;Path&gt;"/><rect width="151" height="74" x="317" y="353" data-name="&lt;Path&gt;"/><rect width="151" height="12" x="317" y="441" data-name="&lt;Path&gt;"/><path d="M160.571 479H139.01l-3.23-12H102.72l-3.23 12H77.929a7 7 0 1 0 0 14h82.642a7 7 0 1 0 0-14zM434.071 479H412.51l-3.23-12H376.22l-3.23 12H351.429a7 7 0 0 0 0 14h82.642a7 7 0 0 0 0-14z" data-name="&lt;Path&gt;"/></g></svg>